<?xml version="1.0" encoding="utf-8"?>
<!-- Generator: Adobe Illustrator 18.1.1, SVG Export Plug-In . SVG Version: 6.00 Build 0)  -->
<svg version="1.1" id="Ebene_1" xmlns="http://www.w3.org/2000/svg" xmlns:xlink="http://www.w3.org/1999/xlink" x="0px" y="0px"
	 viewBox="0 51.6 141.7 38.5" enable-background="new 0 51.6 141.7 38.5" xml:space="preserve">
<path fill="#000" d="M58,77.4c0-0.3-0.2-0.5-0.6-0.6v-0.2h2.2v0.2c-0.4,0.1-0.5,0.3-0.5,0.6V81c0,1.1,0.6,1.8,2,1.8
	c1.1,0,2-0.5,2-1.7v-3.7c0-0.3-0.2-0.5-0.6-0.6v-0.2h1.8v0.2c-0.4,0.1-0.6,0.3-0.6,0.6V81c0,1.6-0.9,2.5-2.9,2.5
	c-1.9,0-2.8-0.8-2.8-2.3C58,81.2,58,77.4,58,77.4z M65.9,83.2c0.4-0.1,0.6-0.3,0.6-0.6v-5c0-0.4-0.2-0.6-0.6-0.7v-0.2h1.4l4.4,5.1
	v-4.4c0-0.3-0.2-0.5-0.6-0.6v-0.2h1.8v0.2c-0.4,0.1-0.6,0.3-0.6,0.6v6H72c-0.2,0-0.5-0.2-1-0.7l-3.9-4.5v4.4c0,0.3,0.2,0.5,0.6,0.6
	v0.2h-1.8C65.9,83.4,65.9,83.2,65.9,83.2z M100.3,81.8h0.2c0.1,0.4,0.3,0.7,0.6,0.9c0.3,0.2,0.8,0.3,1.2,0.3c0.9,0,1.4-0.4,1.4-1.1
	c0-0.7-0.7-1.1-1.6-1.5c-0.6-0.3-1.9-0.8-1.9-2c0-1.1,0.9-1.8,2.2-1.8c0.9,0,1.3,0.2,1.9,0.2v1.4h-0.2c-0.2-0.8-1-1.1-1.8-1.1
	c-0.9,0-1.2,0.5-1.2,1c0,0.7,0.7,1.1,1.5,1.5c0.9,0.4,1.9,0.9,1.9,2.1c0,1.1-0.9,1.9-2.4,1.9c-0.9,0-1.5-0.3-2-0.3v-1.5H100.3z
	 M120,80.3v2.3c0,0.2,0.2,0.5,0.6,0.6v0.2h-2.2v-0.2c0.4-0.1,0.6-0.4,0.6-0.6v-2.2 M119,80.6l-1.8-2.8c-0.3-0.5-0.5-0.8-0.9-0.9
	v-0.2h2.2v0.2c-0.2,0-0.3,0.2-0.3,0.3c0,0.2,0.1,0.3,0.2,0.5c0.1,0.2,1.3,2.2,1.3,2.2l1.3-2.2c0.1-0.2,0.2-0.4,0.2-0.6
	c0-0.1-0.1-0.2-0.3-0.3v-0.2h1.7v0.2c-0.5,0.2-0.8,0.6-1.1,1.1l-1.6,2.7 M86.1,76.7h4.2c0.1,0,0.4,0,0.5-0.1H91v1.3h-0.2
	c-0.2-0.4-0.3-0.8-1.1-0.8h-1.8v2.4h1.4c0.2,0,0.5,0,0.6-0.1c0.3-0.1,0.5-0.2,0.5-0.5h0.2v1.6h-0.2c-0.1-0.3-0.2-0.5-0.5-0.5
	c-0.1,0-0.4-0.1-0.6-0.1h-1.4v2.8h2c0.9,0,1.1-0.4,1.3-0.9l0.2,0.1L91,83.4c-0.6-0.1-1-0.1-1.8-0.1H86v-0.2c0.4-0.1,0.6-0.3,0.6-0.6
	v-5.1c0-0.3-0.2-0.5-0.6-0.6v-0.1L86.1,76.7z M75.4,77.5c0-0.3-0.2-0.5-0.6-0.6v-0.2h2.3v0.2c-0.4,0.1-0.6,0.3-0.6,0.6v5.1
	c0,0.3,0.2,0.5,0.6,0.6v0.2h-2.3v-0.2c0.4-0.1,0.6-0.3,0.6-0.6V77.5z M107,77.5c0-0.3-0.2-0.5-0.6-0.6v-0.2h2.3v0.2
	c-0.4,0.1-0.6,0.3-0.6,0.6v5.1c0,0.3,0.2,0.5,0.6,0.6v0.2h-2.3v-0.2c0.4-0.1,0.6-0.3,0.6-0.6V77.5z M112.8,76.7
	c-2.3,0-2.6-0.1-3.1-0.1V78h0.2c0.2-0.6,0.5-0.8,0.9-0.8h1.4v5.3c0,0.4-0.2,0.5-0.6,0.6v0.2h2.3v-0.2c-0.4-0.1-0.6-0.3-0.6-0.6v-5.3
	h1.4c0.5,0,0.8,0.2,1,0.8h0.2v-1.4C115.4,76.7,115,76.7,112.8,76.7 M94.6,79.8c0.2,0,0.5,0.1,0.8,0.1c1.2,0,1.6-0.7,1.6-1.4
	c0-0.9-0.6-1.5-1.7-1.5c-0.2,0-0.6,0-0.8,0.1v2.7L94.6,79.8z M94.6,82.5c0,0.3,0.2,0.5,0.6,0.6v0.2h-2.3v-0.2
	c0.4-0.1,0.6-0.3,0.6-0.6v-5.1c0-0.3-0.2-0.5-0.6-0.6v-0.2H94c0.3,0,1.2-0.1,1.6-0.1c1.6,0,2.5,0.7,2.5,1.8c0,0.9-0.7,1.5-1.7,1.7
	c0,0,0.2,0.1,0.5,0.4c0.3,0.3,1,1.4,1.4,1.8c0.3,0.4,0.7,0.8,1.1,0.8v0.2c-0.2,0.1-0.5,0.1-0.8,0.1c-0.5,0-1-0.2-1.4-0.7
	c-0.4-0.4-1-1.4-1.3-1.8c-0.2-0.3-0.5-0.5-1-0.6c-0.1,0-0.2,0-0.3-0.1L94.6,82.5L94.6,82.5z M78.7,77.5c-0.2-0.3-0.4-0.6-0.8-0.6
	v-0.2h2.3v0.2c-0.2,0-0.5,0.2-0.5,0.4c0,0.2,0.1,0.4,0.3,0.8l1.7,3.9l1.6-3.9c0.1-0.3,0.2-0.6,0.2-0.8s-0.2-0.4-0.5-0.4v-0.2h1.9
	v0.2c-0.4,0.1-0.7,0.3-0.9,0.9l-2.4,5.7h-0.5C81.1,83.5,78.7,77.5,78.7,77.5z M84.9,59.7c-0.3-0.6-0.7-1.1-1.4-1.2v-0.4
	c0.5,0,1.9,0.1,2.3,0.1c0.3,0,1.8-0.1,2.2-0.1v0.4c-0.4,0.1-0.9,0.3-0.9,0.7c0,0.3,0.2,0.7,0.5,1.5l3.3,7.4l3.1-7.4
	c0.2-0.6,0.4-1.1,0.4-1.4c0-0.4-0.4-0.7-0.9-0.8v-0.4c0.4,0,1.4,0.1,1.7,0.1s1.5-0.1,1.9-0.1v0.3c-0.8,0.2-1.2,0.7-1.7,1.6
	l-4.5,10.7h-1L84.9,59.7L84.9,59.7z M40.9,70.4c0.6-0.1,1-0.4,1-1.1v-9.8c0-0.6-0.4-0.9-1-1.1V58c0.3,0,1.6,0.1,2,0.1S44.7,58,45,58
	v0.4c-0.6,0.1-1,0.4-1,1.1v4.1h7.3v-4.1c0-0.7-0.4-0.9-1-1.1V58c0.3,0,1.7,0.1,2.1,0.1c0.3,0,1.7-0.1,2-0.1v0.4
	c-0.6,0.1-1,0.4-1,1.1v9.8c0,0.6,0.4,0.9,1,1.1v0.3h-4.1v-0.3c0.6-0.1,1-0.4,1-1.1v-4.6H44v4.6c0,0.7,0.4,0.9,1,1.1v0.3h-4.1V70.4z
	 M128.8,69.8c0.5,0.1,1.3,0.1,2,0.1c3.8,0,5.8-2.3,5.8-5.5c0-3.3-2.1-5.6-5.6-5.6c-0.7,0-1.6,0.1-2.1,0.1L128.8,69.8L128.8,69.8z
	 M125.6,70.4c0.8-0.1,1.2-0.4,1.2-1.1v-9.8c0-0.7-0.4-0.9-1.1-1.1V58c0.4,0,1.8,0.1,2.2,0.1c0.6,0,2.3-0.1,3.7-0.1
	c4.5,0,7.2,2.5,7.2,6.3c0,3.7-2.8,6.5-7.5,6.5c-1.3,0-2.9-0.1-3.6-0.1c-0.4,0-1.7,0.1-2.1,0.1V70.4z M74.6,64.1
	c0.4,0.1,1,0.1,1.6,0.1c2.4,0,3.1-1.4,3.1-2.6c0-1.7-1.1-2.8-3.2-2.8c-0.4,0-1,0.1-1.5,0.1V64.1z M74.6,69.2c0,0.7,0.4,1,1.2,1.2
	v0.4c-0.4,0-1.8-0.1-2.2-0.1c-0.3,0-1.7,0.1-2.1,0.1v-0.4c0.7-0.1,1.1-0.5,1.1-1.2v-9.7c0-0.6-0.3-1-1.1-1.1V58
	c0.4,0,1.8,0.1,2.1,0.1c0.6,0,2.4-0.1,3.1-0.1c3,0,4.7,1.2,4.7,3.4c0,1.7-1.3,2.8-3.2,3.3c0,0,0.4,0.3,0.9,0.8
	c0.5,0.6,2,2.7,2.6,3.5c0.6,0.7,1.4,1.5,2.2,1.6v0.3c-0.4,0.1-1,0.2-1.5,0.2c-1,0-1.9-0.4-2.6-1.3c-0.7-0.8-1.9-2.6-2.6-3.5
	c-0.4-0.6-1-1-2-1.2c-0.2,0-0.4-0.1-0.6-0.1C74.6,65,74.6,69.2,74.6,69.2z M114.5,64.1c0.4,0.1,1,0.1,1.6,0.1c2.4,0,3.1-1.4,3.1-2.6
	c0-1.7-1.1-2.8-3.2-2.8c-0.4,0-1,0.1-1.5,0.1V64.1z M114.5,69.2c0,0.7,0.4,1,1.2,1.2v0.4c-0.4,0-1.8-0.1-2.2-0.1
	c-0.3,0-1.7,0.1-2.1,0.1v-0.4c0.7-0.1,1.1-0.5,1.1-1.2v-9.7c0-0.6-0.3-1-1.1-1.1V58c0.4,0,1.8,0.1,2.1,0.1c0.6,0,2.4-0.1,3.1-0.1
	c3,0,4.7,1.2,4.7,3.4c0,1.7-1.3,2.8-3.2,3.3c0,0,0.4,0.3,0.9,0.8c0.5,0.6,2,2.7,2.6,3.5c0.6,0.7,1.4,1.5,2.2,1.6v0.3
	c-0.4,0.1-1,0.2-1.5,0.2c-1,0-1.9-0.4-2.7-1.3c-0.7-0.8-1.9-2.6-2.6-3.5c-0.4-0.6-1-1-1.9-1.2c-0.2,0-0.4-0.1-0.6-0.1
	C114.5,65,114.5,69.2,114.5,69.2z M64.3,65.7l-2-4.7l-1.9,4.7H64.3z M56.3,70.4c0.8-0.2,1.2-0.7,1.5-1.4l4.1-9.7
	c0.2-0.4,0.4-1.2,0.4-1.2h1.1c0,0,0.2,0.8,0.4,1.2L68,69c0.3,0.7,0.6,1.2,1.5,1.4v0.3h-4.4v-0.3c0.6-0.2,0.8-0.5,0.8-0.8
	s-0.1-0.6-0.2-0.9l-0.9-2.1H60l-0.8,2.1C59.1,69,59,69.3,59,69.6c0,0.4,0.2,0.6,0.9,0.8v0.3h-3.6C56.3,70.7,56.3,70.4,56.3,70.4z
	 M104.5,65.7l-2-4.7l-1.9,4.7H104.5z M96.4,70.4c0.8-0.2,1.2-0.7,1.5-1.4l4.1-9.7c0.2-0.4,0.4-1.2,0.4-1.2h1.1c0,0,0.2,0.8,0.4,1.2
	l4.3,9.8c0.3,0.7,0.6,1.2,1.5,1.4v0.3h-4.4v-0.3c0.6-0.2,0.8-0.5,0.8-0.8c0-0.3-0.1-0.6-0.2-0.9l-0.9-2.1h-4.7l-0.8,2.1
	c-0.1,0.2-0.2,0.6-0.2,0.8c0,0.4,0.2,0.6,0.9,0.8v0.3h-3.6L96.4,70.4L96.4,70.4z M3.5,54.1h28.3v10.7c0,4.9-1.8,15.3-14,23
	c0,0-13.2-5.5-14.2-23C3.5,64.8,3.5,54.1,3.5,54.1z"/>
<path fill="#FFFFFF" d="M24.9,67.9c0,0-0.3,0.8-1.4,0l-3.9-0.1c0,0-0.5,0.2-0.6-0.4l0.1-1.1c0,0,0-0.3-0.5-0.3c0,0-0.8,0.1-0.8-0.6
	c0,0-0.1-0.7,0.9-0.7c0,0,0.3,0.2,0.4-0.3c0,0-0.1-3,0-3.2c0,0,0.1-0.3-0.4-0.3c0,0-0.8,0.2-0.8-0.3c0,0-0.1-0.8,0.5-0.8
	c0,0,0.6,0.1,0.7-0.1c0,0,0.1,0.1,0.1-0.5v-0.9c0,0,0.1-0.3,0.5-0.2c0,0,0.7,0.1,0.8,0c0,0,0.2-0.2,0.2-0.3c0,0,0.4,0,0.4,0.1
	c0,0,0.6,0.4,2.6,0.2c0,0,0.3,0,0.4,0.1c0,0,0.4,0.3,0.6,0c0,0,0.3-0.1,1.4-0.1c0,0,1.1,0.3,1.9-0.3l0.3,0.1c0,0,0.3,0.5,0.6,0.4
	c0,0,0.7-0.1,0.8,0.1c0,0,0.2,0.3,0.1,1.2c0,0-0.1,0.4,0.5,0.4c0,0,0.8-0.1,0.7,0.6c0,0,0.2,0.8-1.1,0.7c0,0-0.2,0.2-0.1,0.4
	c0,0,0,2.6-0.1,2.9c0,0,0,0.4,0.5,0.4c0,0,0.7-0.1,0.8,0.6c0,0,0.1,0.9-1,0.7c0,0-0.3,0.1-0.4,0.3l-0.1,1.1c0,0,0,0.6-0.6,0.4
	c-0.1,0-3.6,0.1-3.9,0C25.1,67.8,24.9,67.8,24.9,67.9 M17.5,71.7c0,0,0.2-0.1,0.2-0.2c0,0,0.5-0.1,0.6-0.1l1.5,0.1
	c0,0,1.5,0.1,2.1-0.4c0,0,0.2,0,0.4,0.1c0,0,0.3,0.1,0.4,0.2h0.9c0,0,0.5,0.2,0.5,0.5v0.4c0,0-0.1,0.8,0.1,0.9h0.7
	c0,0,0.6,0.3,0.5,0.6c0,0,0,0.5-0.5,0.6c0,0-0.5,0.1-0.6,0.1c0,0-0.2,0.2-0.2,0.5L24,78c0,0-0.1,0.3,0.4,0.3c0,0,0.7-0.1,0.9,0.3
	c0,0,0.2,0.7-0.2,0.8l-0.3,0.1l-0.6,0.1c0,0-0.3,0-0.3,0.5v0.8c0,0,0,0.6-0.4,0.6l-0.6,0.1c0,0-0.2,0.1-0.5,0.1c0,0-3.9,0.1-4,0
	L18,81.5c0,0-0.5,0.5-0.9,0.1l-0.3-0.3c0,0-0.2,0.1-0.3,0c-0.1,0-4.3,0.1-4.3,0.1s-0.9,0.1-1-0.2c0,0-0.1-1.2-0.1-1.3
	c0,0,0-0.3-0.2-0.4L10,79.4c0,0-0.5-0.3-0.3-0.7c0,0,0.2-0.5,0.6-0.5c0,0,0.7,0.1,0.7-0.1c0,0,0.1-0.1,0.1-0.4c0,0,0.1-2.7,0-2.9
	c0,0,0.1-0.3-0.2-0.3c0,0-0.3,0.1-0.5-0.1c0,0-0.6,0-0.7-0.4c0,0-0.1-0.3,0.1-0.5c0,0,0.3-0.5,1-0.3c0,0,0.4,0.1,0.5-0.2v-1.1
	c0,0-0.1-0.3,0.5-0.5c0,0,0.7,0.2,1-0.2c0,0,0.3-0.5,0.5-0.2c0,0,0.4,0.4,1.6,0.4c0,0,2.1-0.2,2.1-0.1
	C16.8,71.4,17.3,71.5,17.5,71.7z M11.3,67.9c0,0-0.3,0.8-1.4,0L6,67.8c0,0-0.5,0.2-0.6-0.4l0.1-1.1c0,0,0-0.3-0.5-0.3
	c0,0-0.8,0.1-0.8-0.6c0,0-0.1-0.7,0.9-0.7c0,0,0.3,0.2,0.4-0.3c0,0-0.1-3,0-3.2c0,0,0.1-0.3-0.4-0.3c0,0-0.8,0.2-0.8-0.3
	c0,0-0.1-0.8,0.5-0.8c0,0,0.6,0.1,0.7-0.1c0,0,0.1,0.1,0.1-0.5v-0.9c0,0,0.1-0.3,0.5-0.2c0,0,0.7,0.1,0.8,0c0,0,0.2-0.2,0.2-0.3
	c0,0,0.4,0,0.4,0.1c0,0,0.6,0.4,2.6,0.2c0,0,0.3,0,0.4,0.1c0,0,0.4,0.3,0.6,0c0,0,0.3-0.1,1.4-0.1c0,0,1.1,0.3,1.9-0.3l0.3,0.1
	c0,0,0.3,0.5,0.6,0.4c0,0,0.7-0.1,0.8,0.1c0,0,0.2,0.3,0.1,1.2c0,0-0.1,0.4,0.5,0.4c0,0,0.8-0.1,0.7,0.6c0,0,0.2,0.8-1.1,0.7
	c0,0-0.2,0.2-0.1,0.4c0,0,0,2.6-0.1,2.9c0,0,0,0.4,0.5,0.4c0,0,0.7-0.1,0.8,0.6c0,0,0.1,0.9-1,0.7c0,0-0.3,0.1-0.4,0.3v0.8
	c0,0,0,0.6-0.6,0.4c-0.1,0-3.6,0.1-3.9,0C11.5,67.8,11.3,67.8,11.3,67.9"/>
<path fill="#000" d="M24.9,67.9c0,0-0.3,0.8-1.4,0l-3.9-0.1c0,0-0.5,0.2-0.6-0.4l0.1-1.1c0,0,0-0.3-0.5-0.3c0,0-0.8,0.1-0.8-0.6
	c0,0-0.1-0.7,0.9-0.7c0,0,0.3,0.2,0.4-0.3c0,0-0.1-3,0-3.2c0,0,0.1-0.3-0.4-0.3c0,0-0.8,0.2-0.8-0.3c0,0-0.1-0.8,0.5-0.8
	c0,0,0.6,0.1,0.7-0.1c0,0,0.1,0.1,0.1-0.5v-0.9c0,0,0.1-0.3,0.5-0.2c0,0,0.7,0.1,0.8,0c0,0,0.2-0.2,0.2-0.3c0,0,0.4,0,0.4,0.1
	c0,0,0.6,0.4,2.6,0.2c0,0,0.3,0,0.4,0.1c0,0,0.4,0.3,0.6,0c0,0,0.3-0.1,1.4-0.1c0,0,1.1,0.3,1.9-0.3l0.3,0.1c0,0,0.3,0.5,0.6,0.4
	c0,0,0.7-0.1,0.8,0.1c0,0,0.2,0.3,0.1,1.2c0,0-0.1,0.4,0.5,0.4c0,0,0.8-0.1,0.7,0.6c0,0,0.2,0.8-1.1,0.7c0,0-0.2,0.2-0.1,0.4
	c0,0,0,2.6-0.1,2.9c0,0,0,0.4,0.5,0.4c0,0,0.7-0.1,0.8,0.6c0,0,0.1,0.9-1,0.7c0,0-0.3,0.1-0.4,0.3l-0.1,1.1c0,0,0,0.6-0.6,0.4
	c-0.1,0-3.6,0.1-3.9,0C25.1,67.8,24.9,67.8,24.9,67.9"/>
<path fill="none" stroke="#000000" stroke-width="1.000000e-02" d="M24.9,67.9c0,0-0.3,0.8-1.4,0l-3.9-0.1c0,0-0.5,0.2-0.6-0.4
	l0.1-1.1c0,0,0-0.3-0.5-0.3c0,0-0.8,0.1-0.8-0.6c0,0-0.1-0.7,0.9-0.7c0,0,0.3,0.2,0.4-0.3c0,0-0.1-3,0-3.2c0,0,0.1-0.3-0.4-0.3
	c0,0-0.8,0.2-0.8-0.3c0,0-0.1-0.8,0.5-0.8c0,0,0.6,0.1,0.7-0.1c0,0,0.1,0.1,0.1-0.5v-0.9c0,0,0.1-0.3,0.5-0.2c0,0,0.7,0.1,0.8,0
	c0,0,0.2-0.2,0.2-0.3c0,0,0.4,0,0.4,0.1c0,0,0.6,0.4,2.6,0.2c0,0,0.3,0,0.4,0.1c0,0,0.4,0.3,0.6,0c0,0,0.3-0.1,1.4-0.1
	c0,0,1.1,0.3,1.9-0.3l0.3,0.1c0,0,0.3,0.5,0.6,0.4c0,0,0.7-0.1,0.8,0.1c0,0,0.2,0.3,0.1,1.2c0,0-0.1,0.4,0.5,0.4
	c0,0,0.8-0.1,0.7,0.6c0,0,0.2,0.8-1.1,0.7c0,0-0.2,0.2-0.1,0.4c0,0,0,2.6-0.1,2.9c0,0,0,0.4,0.5,0.4c0,0,0.7-0.1,0.8,0.6
	c0,0,0.1,0.9-1,0.7c0,0-0.3,0.1-0.4,0.3l-0.1,1.1c0,0,0,0.6-0.6,0.4c-0.1,0-3.6,0.1-3.9,0C25.1,67.8,24.9,67.8,24.9,67.9z"/>
<path fill="#FFFFFF" d="M20.6,58.4c0,0,0.1,0.5,0.1,0.6c0,0.1-0.1,6.6-0.1,6.6s0.1,0.5-0.4,0.8c0,0-0.1,0.1-0.1-0.3l0.1-6.9
	C20.1,59.2,20.1,58.4,20.6,58.4"/>
<path fill="none" stroke="#000" stroke-width="1.200000e-02" d="M20.6,58.4c0,0,0.1,0.5,0.1,0.6c0,0.1-0.1,6.6-0.1,6.6
	s0.1,0.5-0.4,0.8c0,0-0.1,0.1-0.1-0.3l0.1-6.9C20.1,59.2,20.1,58.4,20.6,58.4z"/>
<path fill="#FFFFFF" d="M19.8,66.4c0,0,0.1-6.5,0-6.6v0.1c0,0-0.1-1.1,0.2-1.6c0,0-0.1-0.4-0.6,0.1v0.9c0,0,0,0.5-0.5,0.5
	c0,0-0.6,0-0.8,0.2c0,0-0.1,0.5,0.4,0.4c0,0,0.8,0,0.9,0.3v3.4c0,0,0.2,0.6-0.5,0.6c0,0-0.8-0.1-0.8,0.4c0,0,0.2,0.4,0.8,0.3
	c0,0,0.5,0.1,0.5,0.6v0.9c0,0-0.1,0.4,0.4,0.4h3.6c0,0,0.2,0,0.2-0.2c0,0,0-0.2-0.3-0.2l-3-0.1C20.3,67,19.8,67.1,19.8,66.4"/>
<path fill="#FFFFFF" d="M20.5,66.4c0,0-0.1,0.3,0.3,0.3h2.4l0.6,0.1c0,0,0.7-0.2,0-0.5h-2.3c0,0-0.4-0.1-0.5-0.1
	C20.9,66.1,20.7,66,20.5,66.4"/>
<path fill="none" stroke="#000" stroke-width="1.200000e-02" d="M20.5,66.4c0,0-0.1,0.3,0.3,0.3h2.4l0.6,0.1c0,0,0.7-0.2,0-0.5
	h-2.3c0,0-0.4-0.1-0.5-0.1C20.9,66.1,20.7,66,20.5,66.4z"/>
<path fill="#FFFFFF" d="M24.4,66.7c0,0-0.4,0-0.4,0.6c0,0,0.1,0.4,0.5,0.4c0,0,0.4-0.1,0.4-0.5C24.9,67.2,24.6,66.7,24.4,66.7
	 M24.7,66.5c0,0,0.2-0.2,0.3-0.2c0,0,2.3,0.2,2.7-0.1c0,0,0.4-0.1,0.4,0c0,0,0.3,0.3,0.3,0.4c0,0,0,0.2-0.4,0.1h-2.7
	C25.4,66.8,24.6,66.9,24.7,66.5"/>
<path fill="none" stroke="#000" stroke-width="1.200000e-02" d="M24.7,66.5c0,0,0.2-0.2,0.3-0.2c0,0,2.3,0.2,2.7-0.1
	c0,0,0.4-0.1,0.4,0c0,0,0.3,0.3,0.3,0.4c0,0,0,0.2-0.4,0.1h-2.7C25.4,66.8,24.6,66.9,24.7,66.5z"/>
<path fill="#FFFFFF" d="M25,67.3c0,0,0-0.2,0.3-0.2h3.2c0,0,0.3,0.2,0.3-0.4c0,0,0.1-2.5,0.1-5.3v-2.5c0,0-0.1-0.3-0.2-0.4
	c0,0,0-0.4,0.4-0.2c0,0,0.3,0,0.3,0.6v0.8c0,0-0.1,0.4,0.6,0.3c0,0,0.6,0.1,0.6,0.3c0,0,0.2,0.5-0.6,0.4h-0.5c0,0-0.2,0.1-0.2,0.4
	l-0.1,3.3c0,0-0.1,0.6,0.5,0.6c0,0,0.6,0,0.7,0.2c0,0,0.4,0.6-0.5,0.5c0,0-0.5,0-0.6,0.1c0,0-0.1,0.1-0.2,1.2c0,0,0.1,0.6-0.4,0.6
	c0,0-3.2,0.1-3.5,0C25.4,67.4,25.1,67.5,25,67.3 M20.9,58.2l-0.1,7.4c0,0,0,0.3,0.6,0.4c0,0,0.7,0.1,0.8,0h1.6c0,0,0.3,0.3,0.3-0.1
	c0,0,0.2-6,0.1-7.2c0,0,0-0.5-0.4-0.6c0,0-1.7,0.1-1.9,0L21.1,58C21.1,58,20.9,58,20.9,58.2"/>
<path fill="#FFFFFF" d="M24.5,58.6c0,0-0.1,3.5-0.1,3.6l-0.1,2.9l-0.1,1c0,0,0.1,0.2,0.3,0.1c0,0,0.7-0.2,1.2-0.1
	c0,0,1.5,0.1,1.8-0.1c0,0,0.2,0.1,0.3-0.3c0,0,0.1-6.4,0.1-6.5c0,0,0.1-0.9,0.1-1c0,0,0-0.2-0.4,0c0,0,0.1,0.2-2.1,0.1
	C25.4,58.2,24.6,58.2,24.5,58.6 M28.2,58.5v7.2c0,0,0.2,0.6,0.5,0.6c0,0,0.1-0.1,0.1-0.4l0.1-6.9C28.8,59,28.6,57.9,28.2,58.5"/>
<path fill="none" stroke="#000" stroke-width="1.200000e-02" d="M28.2,58.5v7.2c0,0,0.2,0.6,0.5,0.6c0,0,0.1-0.1,0.1-0.4l0.1-6.9
	C28.8,59,28.6,57.9,28.2,58.5z"/>
<path fill="#000" d="M25.4,60.6c-0.1-0.2,0.4-0.2,0.4-0.2l0.2,0.1c0.2,0,0.3,0.1,0.3,0.1c0.2,0.3-0.1,0.4-0.1,0.4l-0.1,0.3v2.4
	c0.1,0.1,0.2,0.3,0.2,0.3c0,0.2-0.3,0.2-0.3,0.2h-0.7c-0.2,0-0.1-0.3-0.1-0.3c0.2-0.1,0.3-0.5,0.3-0.5v-2.3
	C25.5,61.1,25.4,60.6,25.4,60.6z M22.3,61v1.2C22.7,62.5,23,62,23,62c0.6-0.6,0-1.1-0.1-1.2s-0.6,0-0.6,0V61z M22.3,62.8l-0.1,0.7
	l0.2,0.3c0.1,0.2-0.1,0.3-0.1,0.3L21.6,64c-0.1-0.1,0-0.3,0-0.3c0.2-0.1,0.2-0.4,0.2-0.4V61c0-0.1-0.2-0.3-0.2-0.3
	c-0.2,0-0.1-0.2-0.1-0.2c0.1-0.1,0.4-0.1,0.4-0.1h1c0.9,0.3,0.8,1,0.8,1c0.1,0.7-0.6,0.9-0.6,0.9L23,62.7l0.7,1
	c0.1,0.1,0.1,0.2,0.1,0.2c-0.1,0.3-0.5,0-0.5,0l-0.8-1.3C22.4,62.6,22.3,62.8,22.3,62.8 M17.5,71.7c0,0,0.2-0.1,0.2-0.2
	c0,0,0.5-0.1,0.6-0.1l1.5,0.1c0,0,1.5,0.1,2.1-0.4c0,0,0.2,0,0.4,0.1c0,0,0.3,0.1,0.4,0.2h0.9c0,0,0.5,0.2,0.5,0.5v0.4
	c0,0-0.1,0.8,0.1,0.9h0.7c0,0,0.6,0.3,0.5,0.6c0,0,0,0.5-0.5,0.6c0,0-0.5,0.1-0.6,0.1c0,0-0.2,0.2-0.2,0.5L24,78
	c0,0-0.1,0.3,0.4,0.3c0,0,0.7-0.1,0.9,0.3c0,0,0.2,0.7-0.2,0.8l-0.3,0.1l-0.6,0.1c0,0-0.3,0-0.3,0.5v0.8c0,0,0,0.6-0.4,0.6l-0.6,0.1
	c0,0-0.2,0.1-0.5,0.1c0,0-3.9,0.1-4,0L18,81.5c0,0-0.5,0.5-0.9,0.1l-0.3-0.3c0,0-0.2,0.1-0.3,0c-0.1,0-4.3,0.1-4.3,0.1
	s-0.9,0.1-1-0.2c0,0-0.1-1.2-0.1-1.3c0,0,0-0.3-0.2-0.4L10,79.4c0,0-0.5-0.3-0.3-0.7c0,0,0.2-0.5,0.6-0.5c0,0,0.7,0.1,0.7-0.1
	c0,0,0.1-0.1,0.1-0.4c0,0,0.1-2.7,0-2.9c0,0,0.1-0.3-0.2-0.3c0,0-0.3,0.1-0.5-0.1c0,0-0.6,0-0.7-0.4c0,0-0.1-0.3,0.1-0.5
	c0,0,0.3-0.5,1-0.3c0,0,0.4,0.1,0.5-0.2v-1.1c0,0-0.1-0.3,0.5-0.5c0,0,0.7,0.2,1-0.2c0,0,0.3-0.5,0.5-0.2c0,0,0.4,0.4,1.6,0.4
	c0,0,2.1-0.2,2.1-0.1C16.8,71.4,17.3,71.5,17.5,71.7z"/>
<path fill="none" stroke="#000000" stroke-width="1.000000e-02" d="M17.5,71.7c0,0,0.2-0.1,0.2-0.2c0,0,0.5-0.1,0.6-0.1l1.5,0.1
	c0,0,1.5,0.1,2.1-0.4c0,0,0.2,0,0.4,0.1c0,0,0.3,0.1,0.4,0.2h0.9c0,0,0.5,0.2,0.5,0.5v0.4c0,0-0.1,0.8,0.1,0.9h0.7
	c0,0,0.6,0.3,0.5,0.6c0,0,0,0.5-0.5,0.6c0,0-0.5,0.1-0.6,0.1c0,0-0.2,0.2-0.2,0.5L24,78c0,0-0.1,0.3,0.4,0.3c0,0,0.7-0.1,0.9,0.3
	c0,0,0.2,0.7-0.2,0.8l-0.3,0.1l-0.6,0.1c0,0-0.3,0-0.3,0.5v0.8c0,0,0,0.6-0.4,0.6l-0.6,0.1c0,0-0.2,0.1-0.5,0.1c0,0-3.9,0.1-4,0
	l-0.5,0.1c0,0-0.5,0.5-0.9,0.1l-0.3-0.3c0,0-0.2,0.1-0.3,0c-0.1,0-4.3,0.1-4.3,0.1s-0.9,0.1-1-0.2c0,0-0.1-1.2-0.1-1.3
	c0,0,0-0.3-0.2-0.4l-0.9-0.1c0,0-0.5-0.3-0.3-0.7c0,0,0.2-0.5,0.6-0.5c0,0,0.7,0.1,0.7-0.1c0,0,0.1-0.1,0.1-0.4c0,0,0.1-2.7,0-2.9
	c0,0,0.1-0.3-0.2-0.3c0,0-0.3,0.1-0.5-0.1c0,0-0.6,0-0.7-0.4c0,0-0.1-0.3,0.1-0.5c0,0,0.3-0.5,1-0.3c0,0,0.4,0.1,0.5-0.2v-1.1
	c0,0-0.1-0.3,0.5-0.5c0,0,0.7,0.2,1-0.2c0,0,0.3-0.5,0.5-0.2c0,0,0.4,0.4,1.6,0.4c0,0,2.1-0.2,2.1-0.1c0,0,0.5,0.1,0.6,0.2
	L17.5,71.7z"/>
<path fill="#FFFFFF" d="M18.1,80.7c0,0,0.3-0.1,0.5-0.1c0.2,0.1,2.9,0,2.9,0s1.2,0.1,1.3-0.1l0.3-0.1c0,0,0.1-0.1,0.1-0.3v-0.8
	l0.1-0.2v-6.3c0,0,0.1-0.5-0.2-0.8c0,0,0-0.2,0.1-0.2h0.1c0,0,0.4-0.1,0.5,0.1c0,0,0.2,0.6,0,0.9c0,0-0.1,0.7,0.3,0.7
	c0,0,0.1,0.1,0.4,0.1c0,0,0.6,0.1,0.6,0.3c0,0,0,0.4-0.4,0.3L24,74.1c0,0-0.4,0.1-0.3,0.5s0,3.6,0,3.6s0,0.4,0.6,0.3
	c0,0,0.7,0,0.7,0.2c0,0,0.2,0.5-0.3,0.5c0,0-1,0-0.9,0.3c0,0-0.1,0.6-0.1,0.8c0,0,0.1,0.5,0,0.6c0,0-0.1,0.3-0.7,0.3h-4.6
	C18.3,81,18,81,18.1,80.7 M17.4,80.2c0,0,0.4,0.1,0.4,0.4c0,0.3,0,0.6-0.2,0.6c-0.2,0.1-0.5,0-0.5-0.3
	C16.9,80.7,17.1,80.3,17.4,80.2"/>
<path fill="#FFFFFF" d="M17.8,80.1c0,0,0.4-0.3,0.6-0.2c0,0,2.1,0.1,2.7,0c0.6-0.1,0.3,0,0.3,0s0.6,0,0.7-0.2c0,0,0.2-0.1,0.3,0.1
	l0.3,0.4c0,0,0,0.2-0.4,0.2h-3.9C18.5,80.3,17.8,80.4,17.8,80.1"/>
<path fill="none" stroke="#000" stroke-width="1.200000e-02" d="M17.8,80.1c0,0,0.4-0.3,0.6-0.2c0,0,2.1,0.1,2.7,0
	c0.6-0.1,0.3,0,0.3,0s0.6,0,0.7-0.2c0,0,0.2-0.1,0.3,0.1l0.3,0.4c0,0,0,0.2-0.4,0.2h-3.9C18.5,80.3,17.8,80.4,17.8,80.1z"/>
<path fill="#FFFFFF" d="M12.4,71.9c0,0,0.2,0,0.1,0.3l-0.1,6.9c0,0,0.1,0.5-0.3,0.8c0,0-0.2,0.3-0.2-0.1l0.1-7.1
	C12.1,72.7,12.1,72.2,12.4,71.9"/>
<path fill="none" stroke="#000" stroke-width="1.200000e-02" d="M12.4,71.9c0,0,0.2,0,0.1,0.3l-0.1,6.9c0,0,0.1,0.5-0.3,0.8
	c0,0-0.2,0.3-0.2-0.1l0.1-7.1C12.1,72.7,12.1,72.2,12.4,71.9z"/>
<path fill="#FFFFFF" d="M12,72c0,0-0.3,0.5-0.3,0.6v7.5c0,0-0.1,0.6,0.4,0.4c0,0,4-0.1,4.3,0c0,0,0.4,0.1,0.2,0.3c0,0,0,0.2-0.3,0.1
	c0,0-1.9,0.2-3.6,0.1c0,0-1.1,0.1-1.2-0.1c0,0-0.2,0-0.2-0.7c0,0,0-0.6-0.1-0.7c0,0,0.1-0.3-0.5-0.4c0,0-0.8,0.1-0.8-0.3
	c0,0,0.1-0.3,0.9-0.3c0,0,0.6,0.1,0.5-0.4l0.1-3.4c0,0,0.1-0.6-0.3-0.6h-0.5c0,0-0.7,0-0.6-0.4c0,0,0.2-0.4,0.9-0.3
	c0,0,0.5,0.1,0.5-0.5c0,0,0-1.2,0.3-1.2C11.6,71.8,12.2,71.8,12,72"/>
<path fill="#FFFFFF" d="M12.7,79.6c0,0,0.3,0.3,0.8,0.3l3.1,0.1c0,0,0.4,0,0.3,0.2c0,0-0.1,0.3-0.5,0.2l-3.8-0.1h-0.4
	c0,0-0.3-0.1,0.2-0.6L12.7,79.6z"/>
<path fill="none" stroke="#000" stroke-width="1.200000e-02" d="M12.7,79.6c0,0,0.3,0.3,0.8,0.3l3.1,0.1c0,0,0.3,0,0.3,0.2
	c0,0-0.1,0.3-0.5,0.2h-4.2c0,0-0.3-0.1,0.2-0.6L12.7,79.6z"/>
<path fill="#FFFFFF" d="M22.3,79.2c0,0,0.3,0.5,0.4,0.6c0,0,0.3,0.3,0.2-0.2L23,73c0,0-0.1-0.2,0-0.6l-0.3-0.5c0,0-0.3-0.2-0.3,0.1
	l-0.1,7C22.3,79,22.3,79.2,22.3,79.2z"/>
<path fill="none" stroke="#000" stroke-width="1.200000e-02" d="M22.3,79.3c0,0,0.3,0.5,0.4,0.6c0,0,0.3,0.3,0.2-0.2L23,73
	c0,0-0.1-0.2,0-0.6l-0.3-0.5c0,0-0.3-0.2-0.3,0.1l-0.1,7C22.3,79,22.3,79.3,22.3,79.3z"/>
<path fill="#FFFFFF" d="M17.3,76.1c0,0,0,0.6-0.1,1.1c0,0.3,0.1,1.6,0,2.3c0,0,0,0.2-0.5,0c0,0-2.9,0.1-3,0c0,0-0.8,0-0.9-0.4
	c0,0,0.1-3.1,0.1-3.2c0,0-0.1-1.7,0-1.9c0,0,0.1-1.6,0-1.8c0,0,0-0.4-0.1-0.6c0,0,0-0.2,0.4-0.1c0,0,0.1,0.3,0.9,0.1
	c0,0,0.6,0.1,1.1,0c0,0,1.2-0.1,1.5,0c0,0,0.5-0.1,0.6,0.4v1.4l0.1,0.5l0.2-0.1l0.1-0.3V72c0,0,0.1-0.3,0.5-0.3c0,0,0.6-0.1,0.7,0
	s1.3,0.1,1.7,0.1c0.4,0,0.4,0.2,1.4-0.3c0,0,0.3,0,0.3,0.2c0,0-0.1,2,0,2.3c0,0,0,3.6-0.1,3.8l0.1,1.1c0,0,0.1,0.5-0.8,0.6
	c0,0,0.5,0.1-2.7,0c0,0-0.5,0-1.1,0.2c0,0-0.1,0-0.1-0.3c0,0,0.1-1.1,0-2.1l-0.1-1.2C17.5,76.1,17.3,76.1,17.3,76.1z"/>
<path fill="#000" d="M15.2,74.5c0,0,0.1,1.7,0,1.9v0.4c0,0,0.1,0.3,0.2,0.3c0,0,0.1,0.3-0.2,0.3c0,0-0.6-0.1-0.7,0
	c0,0-0.3,0,0-0.4c0,0,0.1-0.2,0.1-0.6c0,0,0-1.9,0.1-2c0,0,0.1-0.3-0.1-0.3h-0.3L14,74.4c0,0-0.1,0.3-0.2,0v-0.2l0.2-0.6h0.1
	l0.4,0.2h1.1l0.4-0.2c0,0,0.2,0,0.1,0.2c0,0,0.1,0.5-0.2,0.6c0,0-0.2-0.1-0.3-0.3C15.5,74.1,15.2,74,15.2,74.5 M20.3,73.9
	c0,0-0.9-0.1-0.9,0.9c0,0-0.1,0.6,0.9,1.1c0,0,0.7,0.3,0.7,0.8c0,0-0.1,0.8-0.8,0.4c0,0-0.4-0.2-0.3-0.4c0,0-0.1-0.3-0.3-0.2
	c0,0-0.2,0.1-0.1,0.8c0,0,0,0.3,0.3,0l0.2,0.1c0,0,0.6,0.5,1.1-0.1c0,0,0.6-0.5,0.2-1.2c0,0-0.3-0.5-0.8-0.7c0,0-0.5-0.2-0.6-0.6
	c0,0,0.2-0.7,0.8-0.3c0,0,0.2,0.3,0.4,0.3c0,0,0.2,0,0.1-0.4L21,73.9c0,0-0.1-0.3-0.4,0C20.6,73.9,20.3,74,20.3,73.9 M17.1,74.9
	c0,0.1-0.2,0.8-0.2,0.8l0.1,0.2h0.5c0.1,0,0.2-0.1,0.2-0.2s-0.3-0.8-0.3-0.8l-0.1-0.1L17.1,74.9z M17.5,73.4
	c0.2,0.1,0.2,0.3,0.2,0.3c0.5,1.2,0.8,3,0.8,3c0.1,0.2,0.3,0.4,0.3,0.4c0.4,0.1,0,0.3,0,0.3c-0.2,0.1-0.7,0-0.7,0
	c-0.3-0.1-0.2-0.1-0.2-0.1c0.1-0.1,0-0.6,0-0.6c0-0.2-0.2-0.5-0.2-0.5c-0.1-0.1-0.3,0.2-0.3,0.2s-0.3,0.1-0.3,0
	c0-0.1-0.2-0.2-0.2-0.2c-0.3,0-0.4,0.7-0.4,0.7c0.2,0.6,0,0.5,0,0.5c-0.1,0.2-0.6,0.1-0.6,0.1c-0.2-0.1-0.1-0.2-0.1-0.2
	c0.3-0.1,0.3-0.3,0.3-0.3c0.1-0.2,0.8-3.1,0.8-3.1C17.3,73.6,17.3,73.3,17.5,73.4 M11.3,67.9c0,0-0.3,0.8-1.4,0L6,67.8
	c0,0-0.5,0.2-0.6-0.4l0.1-1.1c0,0,0-0.3-0.5-0.3c0,0-0.8,0.1-0.8-0.6c0,0-0.1-0.7,0.9-0.7c0,0,0.3,0.2,0.4-0.3c0,0-0.1-3,0-3.2
	c0,0,0.1-0.3-0.4-0.3c0,0-0.8,0.2-0.8-0.3c0,0-0.1-0.8,0.5-0.8c0,0,0.6,0.1,0.7-0.1c0,0,0.1,0.1,0.1-0.5v-0.9c0,0,0.1-0.3,0.5-0.2
	c0,0,0.7,0.1,0.8,0c0,0,0.2-0.2,0.2-0.3c0,0,0.4,0,0.4,0.1c0,0,0.6,0.4,2.6,0.2c0,0,0.3,0,0.4,0.1c0,0,0.4,0.3,0.6,0
	c0,0,0.3-0.1,1.4-0.1c0,0,1.1,0.3,1.9-0.3l0.3,0.1c0,0,0.3,0.5,0.6,0.4c0,0,0.7-0.1,0.8,0.1c0,0,0.2,0.3,0.1,1.2
	c0,0-0.1,0.4,0.5,0.4c0,0,0.8-0.1,0.7,0.6c0,0,0.2,0.8-1.1,0.7c0,0-0.2,0.2-0.1,0.4c0,0,0,2.6-0.1,2.9c0,0,0,0.4,0.5,0.4
	c0,0,0.7-0.1,0.8,0.6c0,0,0.1,0.9-1,0.7c0,0-0.3,0.1-0.4,0.3v0.8c0,0,0,0.6-0.6,0.4c-0.1,0-3.6,0.1-3.9,0
	C11.5,67.8,11.3,67.8,11.3,67.9"/>
<path fill="none" stroke="#000000" stroke-width="1.000000e-02" d="M11.3,67.9c0,0-0.3,0.8-1.4,0L6,67.8c0,0-0.5,0.2-0.6-0.4
	l0.1-1.1c0,0,0-0.3-0.5-0.3c0,0-0.8,0.1-0.8-0.6c0,0-0.1-0.7,0.9-0.7c0,0,0.3,0.2,0.4-0.3c0,0-0.1-3,0-3.2c0,0,0.1-0.3-0.4-0.3
	c0,0-0.8,0.2-0.8-0.4c0,0-0.1-0.8,0.5-0.8c0,0,0.6,0.1,0.7-0.1c0,0,0.1,0.1,0.1-0.5v-0.9c0,0,0.1-0.3,0.5-0.2c0,0,0.7,0.1,0.8,0
	c0,0,0.2-0.2,0.2-0.3c0,0,0.4,0,0.4,0.1c0,0,0.6,0.4,2.6,0.2c0,0,0.3,0,0.4,0.1c0,0,0.4,0.3,0.6,0c0,0,0.3-0.1,1.4-0.1
	c0,0,1.1,0.3,1.9-0.3l0.3,0.1c0,0,0.3,0.5,0.6,0.4c0,0,0.7-0.1,0.8,0.1c0,0,0.2,0.3,0.1,1.2c0,0-0.1,0.4,0.5,0.4
	c0,0,0.8-0.1,0.7,0.6c0,0,0.2,0.8-1.1,0.7c0,0-0.2,0.2-0.1,0.4c0,0,0,2.6-0.1,2.9c0,0,0,0.4,0.5,0.4c0,0,0.7-0.1,0.8,0.6
	c0,0,0.1,0.9-1,0.7c0,0-0.3,0.1-0.4,0.3v0.9c0,0,0,0.6-0.6,0.4c-0.1,0-3.6,0.1-3.9,0C11.5,67.8,11.3,67.8,11.3,67.9z"/>
<path fill="#FFFFFF" d="M6.9,58.4c0,0,0.1,0.5,0.1,0.6c0,0.1-0.1,6.6-0.1,6.6s0.1,0.5-0.4,0.8c0,0-0.1,0.1-0.1-0.3l0.1-6.9
	C6.4,59.2,6.5,58.4,6.9,58.4"/>
<path fill="none" stroke="#000" stroke-width="1.200000e-02" d="M6.9,58.4c0,0,0.1,0.5,0.1,0.6c0,0.1-0.1,6.6-0.1,6.6
	s0.1,0.5-0.4,0.8c0,0-0.1,0.1-0.1-0.3l0.1-6.9C6.4,59.2,6.5,58.4,6.9,58.4z"/>
<path fill="#FFFFFF" d="M6.2,66.4c0,0,0.1-6.5,0-6.6v0.1c0,0-0.1-1.1,0.2-1.6c0,0-0.1-0.4-0.6,0.1v0.9c0,0,0,0.5-0.5,0.5
	c0,0-0.6,0-0.8,0.2c0,0-0.1,0.5,0.4,0.4c0,0,0.8,0,0.9,0.3l-0.1,3.5c0,0,0.2,0.6-0.5,0.6c0,0-0.8-0.1-0.8,0.4c0,0,0.2,0.4,0.8,0.3
	c0,0,0.5,0.1,0.5,0.6V67c0,0-0.1,0.3,0.4,0.4h3.6c0,0,0.2,0,0.2-0.2c0,0,0-0.2-0.3-0.2H6.7C6.7,67,6.2,67.1,6.2,66.4"/>
<path fill="#FFFFFF" d="M6.8,66.5c0,0-0.1,0.3,0.3,0.3h2.4l0.6,0.1c0,0,0.7-0.2,0-0.5H7.8c0,0-0.4-0.1-0.5-0.1
	C7.2,66.2,7,66.1,6.8,66.5"/>
<path fill="none" stroke="#000" stroke-width="1.200000e-02" d="M6.8,66.5c0,0-0.1,0.3,0.3,0.3h2.4l0.6,0.1c0,0,0.7-0.2,0-0.5
	H7.8c0,0-0.4-0.1-0.5-0.1C7.2,66.2,7,66.1,6.8,66.5z"/>
<path fill="#FFFFFF" d="M10.7,66.8c0,0-0.4,0-0.4,0.6c0,0,0.1,0.4,0.5,0.4c0,0,0.4-0.1,0.4-0.5C11.2,67.3,10.9,66.7,10.7,66.8
	 M11,66.6c0,0,0.2-0.2,0.3-0.2c0,0,2.3,0.2,2.7-0.1c0,0,0.3-0.1,0.4,0c0,0,0.3,0.3,0.3,0.4c0,0,0,0.2-0.4,0.1h-2.7
	C11.7,66.8,11,67,11,66.6"/>
<path fill="none" stroke="#000" stroke-width="1.200000e-02" d="M11,66.6c0,0,0.2-0.2,0.3-0.2c0,0,2.3,0.2,2.7-0.1
	c0,0,0.4-0.1,0.4,0c0,0,0.3,0.3,0.3,0.4c0,0,0,0.2-0.4,0.1h-2.7C11.7,66.8,11,67,11,66.6z"/>
<path fill="#FFFFFF" d="M11.4,67.3c0,0,0-0.2,0.3-0.2h3.2c0,0,0.3,0.2,0.3-0.4c0,0,0.1-2.5,0.1-5.3v-2.5c0,0-0.1-0.3-0.2-0.4
	c0,0,0-0.4,0.4-0.2c0,0,0.3,0,0.3,0.6v0.8c0,0-0.1,0.3,0.6,0.3c0,0,0.6,0.1,0.6,0.3c0,0,0.2,0.5-0.5,0.4H16c0,0-0.2,0.1-0.2,0.4
	l-0.1,3.3c0,0-0.1,0.6,0.5,0.6c0,0,0.6,0,0.7,0.2c0,0,0.4,0.6-0.5,0.5c0,0-0.5,0-0.6,0.1c0,0-0.1,0.1-0.2,1.2c0,0,0.1,0.6-0.4,0.6
	c0,0-3.2,0.1-3.5,0C11.8,67.4,11.4,67.5,11.4,67.3 M7.3,58.2l-0.1,7.4c0,0,0,0.3,0.6,0.4c0,0,0.7,0.1,0.8,0h1.5c0,0,0.3,0.3,0.3-0.1
	c0,0,0.2-6,0.1-7.2c0,0,0-0.5-0.4-0.6c0,0-1.7,0.1-1.9,0L7.5,58C7.5,58,7.3,58,7.3,58.2"/>
<path fill="#FFFFFF" d="M14.5,58.5v7.2c0,0,0.2,0.6,0.5,0.6c0,0,0.1-0.1,0.1-0.4l0.1-6.9C15.2,59,14.9,57.9,14.5,58.5"/>
<path fill="none" stroke="#000" stroke-width="1.200000e-02" d="M14.5,58.5v7.2c0,0,0.2,0.6,0.5,0.6c0,0,0.1-0.1,0.1-0.4l0.1-6.9
	C15.2,59,14.9,57.9,14.5,58.5"/>
<path fill="none" stroke="#000" stroke-width="1.200000e-02" d="M14.5,58.5v7.2c0,0,0.2,0.6,0.5,0.6c0,0,0.1-0.1,0.1-0.4l0.1-6.9
	C15.2,59,14.9,57.9,14.5,58.5z"/>
<path fill="#FFFFFF" d="M10.9,58.5c0,0-0.1,3.5-0.1,3.6V65l-0.1,1c0,0,0.1,0.2,0.3,0.1c0,0,0.7-0.2,1.2-0.1c0,0,1.5,0.1,1.8-0.1
	c0,0,0.2,0.1,0.3-0.3c0,0,0.1-6.4,0.1-6.5c0,0,0.1-0.9,0.1-1c0,0,0-0.2-0.4,0c0,0,0.1,0.2-2.1,0.1C11.8,58.2,10.9,58.2,10.9,58.5"/>
<path fill="#000" d="M10.2,60.7L10,61.1c0,0-0.5,2.2-0.8,2.7c0,0-0.1,0.5-0.4,0.1c0,0-0.9-2.8-0.9-2.9l-0.3-0.2
	c0,0-0.2-0.3,0.1-0.3h0.8c0,0,0.3,0.2-0.1,0.5c0,0,0.1,0.4,0.5,1.8c0,0,0.1,0.5,0.3,0.1l0.5-1.6l-0.1-0.5c0,0-0.1-0.2,0.1-0.3
	C9.6,60.5,10.1,60.5,10.2,60.7 M11.5,61v2.4l-0.1,0.2c0,0-0.2,0.3-0.1,0.3c0,0-0.2,0.1,1.5,0.2c0,0,0.6,0.1,0.5-0.7
	c0,0-0.1-0.3-0.3,0.1c0,0-0.1,0.4-0.9,0.3c0,0-0.2-0.2-0.2-0.3v-1c0,0,0-0.3,0.4-0.2c0,0,0.4,0.3,0.5,0.2c0,0,0.2-0.4,0-0.6
	c0,0-0.2,0-0.2,0.1c0,0-0.1,0.3-0.5,0.1c0,0-0.2-0.4-0.1-0.7c0,0-0.1-0.6,0.3-0.5c0,0,0.5,0.1,0.5,0.2c0,0,0.1,0.3,0.2-0.1l-0.1-0.4
	c0,0-0.1-0.2-0.2-0.1c0,0-0.8,0.1-0.9,0l-0.6,0.1c0,0-0.1,0.2,0.2,0.3C11.4,60.9,11.5,60.9,11.5,61"/>
</svg>
