<svg xmlns="http://www.w3.org/2000/svg" viewBox="184 -8.3 509.5 156"><path fill="#000" d="M313.3 90.9c4.1 3.2 8.9 6.1 15.4 6.1 9.7 0 12.3-5.9 12.3-13.6V15.6h10.5v55.3c0 4.8 0 10-.3 14.8-.5 12.8-7.1 20.3-22.2 20.3-10.4 0-18-4.3-21.1-7.6l5.4-7.5zM396.7 36.2c-13.2 0-29.6 6.9-29.6 34.6 0 24 10.4 35.5 27.4 35.5 16.7 0 29.6-11 29.6-37 0-30.2-18.2-33.1-27.4-33.1zm-1.3 62.1c-15.2 0-17.9-15.6-17.9-28.8 0-14.4 5.7-25.1 18.4-25.1 12.9 0 17.6 11.2 17.6 27.2 0 14.5-5.5 26.7-18.1 26.7zM488 101.7V38.1h-10.1v39.8c0 9.2-6.1 15.6-16.3 15.6-14.2 0-15.1-7.7-15.1-17.9V38.1h-10.4v40.3c0 15.2 7.3 20.7 18.7 21.9-6.5 4.3-14.7 12-14.7 22.8 0 10.3 6.5 16.8 20.2 16.8 14.1 0 22.7-6.8 26-19.8 1.2-4.6 1.7-12.5 1.7-18.4zm-10.3 5.1c0 14.6-4.3 25.1-16.4 25.1-7.3 0-11.2-3.6-11.2-10.1 0-12.7 11.6-19.9 27.6-26.6v11.6zM547.4 91.8c-2.5 1.9-8.1 6.1-17.1 6.1-14.1 0-19.5-11.5-20-22.4 1.1 0 2.1.1 3.5.1 12.9 0 36.7-3.2 36.7-23 0-9.7-7.1-16.4-19.5-16.4-20.3 0-31 16.3-31 36 0 19.9 8.8 34 29.6 34 10.7 0 18.4-4.8 21.8-7.6l-4-6.8zm-17-47.9c6 0 10.3 3.8 10.3 10 0 12-18.7 14.1-27.8 14.1-1.1 0-1.9-.1-2.7-.1.4-10.5 5.9-24 20.2-24zM574.6 104.4V60.9c0-8 7.7-16.4 18-16.4 11.2 0 13.3 8 13.3 17.9v42h10.4V59.2c0-15.2-7.5-23-21.2-23-8.7 0-16.4 4-21.5 11.5l-1.2-9.6h-8.9l.7 10v56.3h10.4zM631.8 11.6v74.6c0 9.7.5 20 18.3 20 5.3 0 11.2-1.7 15.1-4.4l-3.1-6.9c-2.3 1.3-5.6 3.2-10.1 3.2-6.3 0-9.7-2.8-9.7-11.6V47h19v-8.9h-19V11.6h-10.5zM245 5.4c-29.3 0-53 23.7-53 53s23.7 53 53 53 53-23.7 53-53-23.7-53-53-53zm30.3 60.5c0 1.1-.9 2-2 2h-18.9v18.9c0 1.1-.9 2-2 2h-14.9c-1.1 0-2-.9-2-2V67.9h-18.9c-1.1 0-2-.9-2-2V51c0-1.1.9-2 2-2h18.9V30.1c0-1.1.9-2 2-2h14.9c1.1 0 2 .9 2 2V49h18.9c1.1 0 2 .9 2 2v14.9zM680.1 11c-3.7 0-6.8 2.9-6.8 6.7 0 3.9 3.1 6.8 6.8 6.8 3.7 0 6.8-2.9 6.8-6.8 0-3.8-3.1-6.7-6.8-6.7zm0 12.5c-3.2 0-5.6-2.5-5.6-5.8 0-3.2 2.4-5.7 5.6-5.7 3.1 0 5.5 2.5 5.5 5.7 0 3.3-2.4 5.8-5.5 5.8z"/><path fill="#202865" d="M681 18.2c1.2-.1 2.1-.7 2.1-2.1 0-1.5-.9-2.3-2.8-2.3h-3v7.9h1.3v-3.4h1.3l2.1 3.4h1.3l-2.3-3.5zm-1.2-.9h-1.3v-2.5H680.2c.8 0 1.7.2 1.7 1.2 0 1.2-1 1.3-2.1 1.3z"/></svg>