<?xml version="1.0" encoding="utf-8"?>
<!-- Generator: Adobe Illustrator 18.1.1, SVG Export Plug-In . SVG Version: 6.00 Build 0)  -->
<svg version="1.1" id="Ebene_1" xmlns="http://www.w3.org/2000/svg" xmlns:xlink="http://www.w3.org/1999/xlink" x="0px" y="0px"
	 viewBox="0 53.7 141.7 33.3" enable-background="new 0 53.7 141.7 33.3" xml:space="preserve">
<g>
	<path fill="#000" d="M15.6,70.7l0.6-0.3l8,5.4L15.6,70.7 M15.1,70.4l-0.5-0.3l0.6-10.4L15.1,70.4 M14.4,70.4l-2.6,2.2l3.2-1.9
		L14.4,70.4"/>
	<path fill="#000" d="M15.3,56.6c-7.8,0-14.1,6.3-14.1,14.1c0,7.8,6.3,14.1,14.1,14.1s14.1-6.3,14.1-14.1
		C29.5,62.9,23.2,56.6,15.3,56.6z M15.3,84.2c-3.2,0-6.2-1.1-8.5-3.1c-2.2-1.9-3.9-5-4.3-8.2c1,6.2,6.4,10.9,12.9,10.9
		c7.2,0,13-5.8,13-13c0-2.9-1.1-5.9-2.8-8.1c1.7,1.3,3.2,5.1,3.2,8.1C28.7,78.1,22.7,84.2,15.3,84.2z M14.1,69.8L15.3,58h0.1
		l0.1,12.3l2-1.2l-2-11.1c7,0.1,12.6,5.7,12.6,12.7c0,2.3-0.6,4.3-1.6,6.2l-8.8-7.4L16.8,70l9.6,7.1c0,0.1-0.1,0.1-0.1,0.1L15.5,71
		v2.2l10.7,4.1c-2.2,3.7-6.3,6.2-11,6.2c-4.7,0.1-8.7-2.4-11-6.1l10.7-4.2V71L4.3,77.2c0-0.1-0.1-0.1-0.1-0.1l9.6-7L13,69.7L4.1,77
		c-1-1.8-1.5-3.9-1.5-6.2c0-6.9,5.5-12.6,12.4-12.7l-1.7,11.2C13.3,69.3,14.1,69.8,14.1,69.8z M15.3,57.4c-7.4,0-13.4,6-13.4,13.4
		c0,3,1.1,5.8,2.7,8.3c0.6,1,1.2,1.7,2,2.6c-3.2-2.6-5.2-6.5-5.2-10.9c0-7.7,6.2-13.9,13.9-13.9s14,6.5,13.7,13.9
		C28.9,63.5,22.6,57.4,15.3,57.4z M77.5,71.7c0-2.5-1.1-4.5-3.5-4.5c-2.2,0-3.5,2-3.5,4.5c0,2.5,1,4.5,3.5,4.5
		c2.4,0,3.1-1.2,3.5-3.1h-0.8c-0.1,0.7-0.5,2.3-2.3,2.3c-2,0.1-2.1-2.5-2.1-3.7V71c0-0.7-0.1-3,1.8-3c1.5,0,1.7,1.9,1.7,3h-3.5v0.7
		C72.3,71.7,77.5,71.7,77.5,71.7z M36.2,64.1v0.6h0.5c0.4,0,0.9,0,0.9,0.5l-0.1,9.5c0,0.4-0.1,0.7-0.9,0.7H36V76h3.5v-0.6H39
		c-0.4,0-0.7-0.1-0.7-0.7v-9.1l3.7,9.8h0.4l3.8-9.9l0.1,9.2c0,0.3-0.3,0.7-0.8,0.7h-0.7V76h4.4v-0.6h-0.5c-0.4,0-0.8-0.2-0.8-0.7
		l-0.1-9.3c0-0.3,0.4-0.7,0.7-0.7h0.7v-0.6H46l-3.3,8.6l-3.3-8.6H36.2z M60.7,75.9v-0.4h-0.4c-0.3,0-0.9-0.1-0.9-0.7v-4.6
		c0-1.4,0.7-2,1.5-2c0.3,0,0.4,0.1,0.4,0.7c0,0.6,0.4,0.9,0.7,0.8c0.4,0,0.9-0.1,0.8-1.1c-0.1-1-0.7-1.4-1.6-1.4
		c-0.7,0-1.4,0.5-1.5,0.7c-0.2,0.3-0.4,0.1-0.5-0.1c0-0.3-0.1-0.7-0.5-0.5c-0.7,0.2-1.5,0.4-2.1,0.4V68c1.5-0.1,1.3,0.7,1.3,1v5.7
		c0,0.7-0.6,0.7-0.9,0.7h-0.4v0.4C56.6,75.8,60.7,75.9,60.7,75.9z M68.5,67.8c-0.5-0.4-1.2-0.6-2-0.6c-2.2,0-3.5,2-3.5,4.5
		c0,2.5,1,4.5,3.5,4.5c2.1,0,2.7-1.2,3.1-3.1h-0.8c-0.1,0.7-0.3,2.3-1.9,2.4c-2,0.1-2.1-2.5-2.1-3.7c0-0.7,0.1-3.8,1.8-3.8
		c1.4,0,2.3,1,2.3,2.1h0.4V67H69L68.5,67.8z M119,75.4c-2,0.1-2.1-2.5-2.1-3.7h5.2c0-2.5-1.1-4.5-3.5-4.5c-2.2,0-3.5,2-3.5,4.5
		c0,2.5,1,4.5,3.5,4.5c2.4,0,3.1-1.2,3.5-3.1h-0.8C121.2,73.8,120.7,75.4,119,75.4z M118.7,68c1.5,0,1.7,1.9,1.7,3H117
		C117,70.3,116.9,68,118.7,68z M90.3,75.4c-2,0.1-2.1-2.5-2.1-3.7h5.2c0-2.5-1.1-4.5-3.5-4.5c-2.2,0-3.5,2-3.5,4.5
		c0,2.5,1,4.5,3.5,4.5c2.4,0,3.1-1.2,3.5-3.1h-0.8C92.5,73.8,92,75.4,90.3,75.4z M90,68c1.5,0,1.7,1.9,1.7,3h-3.5
		C88.2,70.3,88.1,68,90,68z M53.2,75.4c-2,0.1-2.1-2.5-2.1-3.7h5.2c0-2.5-1.1-4.5-3.5-4.5c-2.2,0-3.5,2-3.5,4.5c0,2.5,1,4.5,3.5,4.5
		c2.4,0,3.1-1.2,3.5-3.1h-0.8C55.4,73.8,55,75.4,53.2,75.4z M52.9,68c1.5,0,1.7,1.9,1.7,3h-3.5C51.2,70.3,51.1,68,52.9,68z
		 M85.1,74.2v-9.8c0-0.4-0.2-0.7-0.6-0.7c-0.7,0.2-1.5,0.4-2.1,0.4v0.4c1-0.1,1.1,0.2,1.1,0.6v3c-0.4-0.4-1-0.8-1.9-0.8
		c-1.2,0-3.4,1-3.4,4.3c0,4.3,2.6,4.6,3.3,4.6c0.7,0,1.8-0.7,2-1c0-0.1,0.1-0.1,0.1,0c0,0.3,0.3,0.8,0.6,0.7
		c0.7-0.2,1.5-0.4,2.1-0.4v-0.4C84.9,75.2,85.1,74.5,85.1,74.2L85.1,74.2z M83.6,73.1c0,1.9-1,2.5-1.9,2.5c-1.9,0-1.8-2.9-1.8-4.1
		c0-1.2,0.1-3.6,1.8-3.5c1.7,0.2,1.8,2.1,1.8,3.1L83.6,73.1z M105.6,70.9v-0.7h-4.7v0.7H105.6 M94.6,73v2.9H95l0.4-0.7
		c0.4,0.3,1.1,0.8,2.1,0.8c1,0,2.3-0.5,2.8-1.5s0.3-2.6-0.9-3.1c-1-0.4-2-1-2.6-1.3C96.1,69.8,96,69.3,96,69
		c0.1-0.6,0.6-1.2,1.7-1.2c1.1,0,1.7,0.9,1.8,2h0.4V67h-0.4l-0.4,0.7c-0.7-0.5-1-0.6-1.7-0.6c-0.7,0-1.8,0.4-2.4,1.3
		c-0.7,1-0.4,2.5,1,3.2c1.5,0.7,2.2,1,2.6,1.2c0.4,0.2,0.7,1,0.4,1.5s-0.8,1-1.6,1s-2.1-0.6-2.5-2.4h-0.3C94.6,72.9,94.6,73,94.6,73
		z M112.1,69.5c0.8-0.2,1.7-1.7,1.7-2.7s-0.4-2.7-2.8-2.7h-5.2v0.4c0.5,0,1.4,0.1,1.4,1v8.6c0,0.5,0,1.3-1.4,1.3v0.5h4.3
		c1.3,0,4.3-0.1,4.3-3.5C114.3,71.3,113.8,69.9,112.1,69.5z M108.6,64.7h1.8c1.3,0,1.8,1,1.8,2.1c0,1.5-0.4,2.6-1.8,2.6h-1.8V64.7z
		 M110.4,75.4h-1.8V70h2c1.2,0,2.1,0.8,2.1,2.6C112.8,74.4,111.7,75.4,110.4,75.4z M128.6,69.6v5.1c0,0.7-0.6,0.7-0.9,0.7h-0.2v0.4
		h3.8v-0.4h-0.4c-0.3,0-0.9-0.1-0.9-0.7v-5.1c0-2.4-2.1-2.4-2.9-2.4s-1.6,0.5-1.8,0.7c-0.2,0.3-0.4,0.1-0.5-0.1
		c0-0.3-0.1-0.7-0.5-0.5c-0.7,0.2-1.5,0.4-2.1,0.4V68c1.5-0.1,1.3,0.7,1.3,1v5.7c0,0.7-0.6,0.7-0.9,0.7h-0.5v0.4h4.1v-0.4H126
		c-0.3,0-0.9-0.1-0.9-0.7v-4.6c0-0.7,0.3-2,1.7-2.1C128.4,68,128.6,69,128.6,69.6z M132.1,69.8l0.7-2.4h6l-5.1,8.1h2.7
		c0.7,0,1.1-0.2,1.8-1.8h0.3l-0.6,2.4h-6.1l5.1-8.1h-2.3c-0.6,0-1.2,0-2.1,1.9L132.1,69.8L132.1,69.8z"/>
</g>
</svg>
