<?xml version="1.0" encoding="utf-8"?>
<!-- Generator: Adobe Illustrator 18.1.1, SVG Export Plug-In . SVG Version: 6.00 Build 0)  -->
<svg version="1.1" id="Ebene_1" xmlns="http://www.w3.org/2000/svg" xmlns:xlink="http://www.w3.org/1999/xlink" x="0px" y="0px"
	 viewBox="0 46.2 141.7 46" enable-background="new 0 46.2 141.7 46" xml:space="preserve">
<g>
	<path fill="#000" d="M98.4,62v-5.8c7.6-0.1,7.8-0.2,10.4-0.1c3.8,0.1,6.1,1.2,7.8,2.9c1.6,1.6,2.9,4.2,2.8,7.7
		c0,2.1-1.3,9.7-10.5,10.2c-1.1,0.1-3.6,0-5.1,0l1.6-6c3.7,0.4,6.6-0.9,6.7-4.3c0.1-3.9-3.3-5.1-6.7-4.5L98.4,62"/>
	<path fill="#000" d="M105.2,82.6h-6.7V60.8h6.7V82.6 M129.8,65.6l5.6,2c3.8,1.5,4.5,4.4,4.5,7c-0.1,6-4.9,8.2-8.7,8.6
		c-4.3,0.4-7.7-0.4-8.8-0.5v-6.5c3.4,1.1,7.4,1,8.7,0.5c1-0.4,1.8-1,1.7-1.8c0-0.4-0.1-1-1.3-1.5l-5.1-1.8c-3.3-1.2-4.7-4.4-4.4-7.1
		c0.2-5.6,4.8-8.6,9.3-8.3c1.3,0,3.3,0,6,0.4v6.4c-3.1-0.7-4.5-0.7-6.1-0.5c-1.7,0.2-2.6,1.1-2.6,2.1
		C128.7,64.9,129.2,65.3,129.8,65.6 M33.8,66.2h7.4v-9.9H48v26.4h-6.9V72.1h-7.4v10.5h-6.7V56.3h6.7V66.2 M54.5,56.3h6.9v26.2h-6.9
		V56.3z M85.1,56.3h6.9v26.2h-6.9V56.3z M74.6,76.7h7v5.9H67.8V56.3h6.9V76.7 M2.7,62v-5.8c7.6-0.1,7.8-0.2,10.4-0.1
		c3.8,0.1,6.1,1.2,7.8,2.9c1.6,1.6,2.9,4.2,2.8,7.7c0,2.1-1.3,9.7-10.5,10.2c-1.1,0.1-3.6,0-5.1,0l1.5-6c3.7,0.4,6.6-0.9,6.7-4.3
		c0.1-3.9-3.3-5.1-6.7-4.5L2.7,62"/>
	<path fill="#000" d="M9.5,82.6H2.7V61.3h6.9V82.6"/>
</g>
</svg>
