<svg xmlns="http://www.w3.org/2000/svg" viewBox="0 47.7 141.7 40.5"><path fill="#000" d="M45.1 64.4c0 .5.1.9.3 1.2.2.3.4.6.7.8.3.2.6.4 1 .5s.8.1 1.2.1c.3 0 .6 0 .9-.1.3-.1.6-.1.9-.3.3-.1.5-.3.7-.5.2-.2.3-.5.3-.9s-.1-.7-.4-.9c-.2-.2-.6-.4-.9-.6-.4-.2-.8-.3-1.3-.4-.5-.1-1-.2-1.5-.4-.5-.1-1-.3-1.5-.5s-.9-.4-1.3-.7c-.4-.3-.7-.7-.9-1.1-.2-.5-.4-1-.4-1.6 0-.7.1-1.4.5-1.9.3-.5.7-1 1.2-1.3.5-.4 1-.6 1.7-.8.6-.2 1.2-.3 1.9-.3s1.4.1 2.1.3 1.3.4 1.8.8.9.8 1.2 1.4c.3.6.5 1.3.5 2.1h-3c0-.4-.1-.8-.3-1s-.3-.5-.6-.6-.5-.3-.8-.3c-.3-.1-.7-.1-1-.1-.3 0-.5 0-.7.1s-.5.1-.7.3c-.2.1-.4.3-.5.5-.1.2-.2.5-.2.7s.1.5.1.7c.1.2.3.3.6.5.3.1.7.3 1.3.4.5.1 1.2.3 2.1.6.2 0 .4.1.6.2l.9.3s.6.3.9.5.6.5.8.7c.3.3.5.6.6 1 .2.4.2.8.2 1.4 0 .6-.1 1.2-.4 1.8-.3.5-.6 1-1.1 1.4-.5.4-1.1.7-1.8.9-.7.2-1.5.3-2.5.3-.8 0-1.5-.1-2.2-.3-.7-.2-1.4-.5-1.9-.9s-1-.9-1.3-1.5c-.3-.6-.5-1.4-.5-2.2l2.7-.3zM54.6 55h4.3l3.2 9.6 3.1-9.6h4.3v14h-2.9v-9.9L63.2 69h-2.3l-3.4-9.8V69h-2.8l-.1-14zM75 55h3.1l5.2 14h-3.2l-1-3.1h-5.2L72.8 69h-3.1L75 55zm-.3 8.6h3.6l-1.7-5.1-1.9 5.1zM85.6 64.4c0 .5.1.9.3 1.2.2.3.4.6.7.8.3.2.6.4 1 .5s.8.1 1.2.1c.3 0 .6 0 .9-.1.3-.1.6-.1.9-.3.3-.1.5-.3.7-.5s.3-.5.3-.9-.1-.7-.4-.9l-.9-.6c-.4-.2-.8-.3-1.3-.4-.5-.1-1-.2-1.5-.4-.5-.1-1-.3-1.5-.5s-.9-.4-1.3-.7c-.4-.3-.7-.7-.9-1.1-.3-.5-.4-1-.4-1.6 0-.7.1-1.4.5-1.9.3-.5.7-1 1.2-1.3s1-.6 1.7-.8c.6-.2 1.2-.3 1.9-.3s1.4.1 2.1.3 1.3.4 1.8.8.9.8 1.2 1.4c.3.6.5 1.3.5 2.1h-3c0-.4-.1-.8-.3-1-.1-.3-.3-.5-.6-.6s-.5-.3-.8-.3c-.3-.1-.7-.1-1-.1-.3 0-.5 0-.7.1s-.5.1-.7.3c-.2.1-.4.3-.5.5-.1.2-.2.5-.2.7s.1.5.2.7c.1.2.3.3.6.5.3.1.7.3 1.3.4.5.1 1.2.3 2.1.6.2 0 .4.1.7.2l.9.3s.6.3.9.5c.3.2.6.5.8.7s.5.6.6 1c.2.4.2.8.2 1.4 0 .6-.1 1.2-.4 1.8-.3.5-.6 1-1.1 1.4-.5.4-1.1.7-1.8.9-.7.2-1.5.3-2.5.3-.8 0-1.5-.1-2.2-.3-.7-.2-1.4-.5-1.9-.9s-1-.9-1.3-1.5c-.3-.6-.5-1.4-.5-2.2l2.5-.3zM95.1 55h3v5.3h5.6V55h3v14h-3v-6h-5.6v6h-3V55zM108.5 55h3v14h-3V55zM113.2 55h3l5.8 9.3V55h2.9v14h-3l-5.7-9.3V69h-2.8l-.2-14z"/><g><path fill="#000" d="M136.4 66c.1-.2.3-.5.3-.5l-.8.2c-.8-.5-2.3-1.4-2.3-1.4l-.4-.2.6-.1s5-.9 7.8-1.4c-.5 2.8-.8 5.3-1.3 8.4-.7-.8-1.7-2.2-1.7-2.2l.1-.9-.5.4c-2.3 1.7-5 2.3-7.9 1.1-1.9-.8-3.2-2.2-3.9-4.1-1.5-3.8.3-8.1 4.2-9.7 3.5-1.4 7.7.1 9 3.3-.8.5-2.4 1.1-2.4 1.1s-.7-.9-1.2-1.4c-2-1.7-5-1.2-6.6.9-1.6 2-1.3 5 .7 6.7 1.6 1.3 4.7 1.9 6.3-.2z"/></g><g fill="#000"><path d="M43.9 72.5h1.2l3 7.5 3-7.5h1.2V81h-.8v-7.4L48.4 81h-.8l-3-7.4V81h-.8v-8.5zM61.4 72.5h.9l3.3 8.5h-.9l-1-2.6h-3.9l-1 2.6h-.9l3.5-8.5zm-1.3 5.2h3.3l-1.7-4.4-1.6 4.4zM78.7 81h-.6l-.1-1.5c-.1.3-.3.6-.5.8-.2.2-.5.4-.7.5-.3.1-.5.3-.8.3-.3.1-.6.1-.9.1-.7 0-1.3-.1-1.8-.4-.5-.3-.9-.6-1.3-1-.3-.4-.6-.9-.8-1.4-.2-.5-.2-1.1-.2-1.7s.1-1.2.3-1.7c.2-.5.4-1 .8-1.4.3-.4.8-.7 1.3-1 .5-.3 1.1-.4 1.8-.4.5 0 .9.1 1.3.2s.8.3 1.1.5c.3.3.6.5.8.9.2.4.4.8.4 1.2H78c0-.3-.1-.5-.3-.8-.1-.3-.3-.5-.6-.7-.2-.2-.5-.4-.8-.5H75c-.6 0-1 .1-1.5.3-.4.2-.7.5-1 .8-.3.4-.5.8-.6 1.2-.1.5-.2.9-.2 1.4 0 .5.1.9.2 1.4.1.5.3.8.6 1.2.3.4.6.6 1 .8.4.2.9.3 1.5.3.5 0 .9-.1 1.3-.2.4-.2.7-.4.9-.6.3-.3.5-.6.6-1 .1-.4.2-.8.2-1.3h-3v-.7h3.6l.1 4.4zM87.7 72.5h.9L92 81h-.9l-1-2.6h-3.9l-1 2.6h-.9l3.4-8.5zm-1.2 5.2h3.3l-1.7-4.4-1.6 4.4zM97.4 72.5h6.1v.7l-5.6 7.1h5.7v.7H97v-.7l5.6-7.1h-5.2v-.7zM109.7 72.5h.8V81h-.8v-8.5zM117.3 72.5h.9l5 7.2v-7.2h.8V81h-.9l-5-7.2V81h-.8v-8.5zM130.8 72.5h5.9v.7h-5.1v3.1h4.8v.7h-4.8v3.4h5.1v.7h-6v-8.6h.1z"/></g><g><path fill="#000" d="M21.7 73.3c-.7-.6-1.5-1.1-2.3-1.5-2-.9-4-1.7-6-2.7-5.5-2.6-9-8.4-5-15.4L2.6 55c-1.9.4-3 2.3-2.6 4.1l5.6 24.4c.4 1.9 2.3 3 4.1 2.6l2.4-.6c-1.6-.7-3.1-1.4-4.7-2.1 1-2.3 1.9-4.4 2.8-6.7.6.4 1 .6 1.5.9 2.6 1.4 5.3 2.1 8.3 1.6 1.4-.2 2.6-.7 3-2.3.4-1.2-.1-2.6-1.3-3.6zM27.1 49.6l-3.5.8c1.7.6 3.2 1 4.6 1.5.4.1 1.2.5 1.2.5S27.7 56.9 27 59c-2.8-2.2-5.4-2.8-8.4-2.4-1.3.2-2.6 1.1-2.9 2.4-.4 1.4.1 2.5 1.3 3.3.9.6 1.8 1 2.7 1.4 1.8.8 3.7 1.5 5.6 2.3 4.5 2.1 6.8 5.5 6.4 10.5-.1 1.5-.5 3.2-.9 4.9l3.5-.8c1.9-.4 3-2.3 2.6-4.1l-5.6-24.4c-.5-1.8-2.3-2.9-4.2-2.5z"/></g></svg>