<?xml version="1.0" encoding="utf-8"?>
<!-- Generator: Adobe Illustrator 18.1.1, SVG Export Plug-In . SVG Version: 6.00 Build 0)  -->
<svg version="1.1" id="Ebene_1" xmlns:sketch="http://www.bohemiancoding.com/sketch/ns"
	 xmlns="http://www.w3.org/2000/svg" xmlns:xlink="http://www.w3.org/1999/xlink" x="0px" y="0px" viewBox="125 8.7 391 124"
	 enable-background="new 125 8.7 391 124" xml:space="preserve">
<title>Algolia_logo_bg-white</title>
<desc>Created with Sketch.</desc>
<g id="Algolia_logo_bg-white" transform="translate(1.000000, 0.000000)" sketch:type="MSLayerGroup">
	<path id="Fill-1" sketch:type="MSShapeGroup" fill="#1D1D1B" d="M359.6,55.7l-5.7,20.2l18.3-10.1C369.6,61,365,57.3,359.6,55.7z"/>
	<path id="Fill-2" sketch:type="MSShapeGroup" fill="#1D1D1B" d="M327.5,42.1c-2.5-2.5-6.4-2.5-8.9,0l-1.1,1.1
		c-2.5,2.5-2.5,6.5,0,8.9l1.2,1.2c2.5-4.1,5.7-7.6,9.4-10.6L327.5,42.1z"/>
	<path id="Fill-3" sketch:type="MSShapeGroup" fill="#1D1D1B" d="M365.8,36c0-0.1,0-0.3,0-0.4v-3.2c0-3.5-2.8-6.3-6.3-6.3h-11
		c-3.5,0-6.3,2.8-6.3,6.3v3.1c3.5-1,7.2-1.5,11-1.5C357.7,34,361.9,34.7,365.8,36"/>
	<path id="Fill-4" sketch:type="MSShapeGroup" fill="#1D1D1B" d="M353.8,50.3c13.8,0,25,11.2,25,25s-11.2,25-25,25
		c-13.8,0-25-11.2-25-25S340,50.3,353.8,50.3 M318.8,75.3c0,19.3,15.7,35,35,35c19.3,0,35-15.7,35-35s-15.7-35-35-35
		C334.4,40.3,318.8,56,318.8,75.3z"/>
	<path id="Fill-5" sketch:type="MSShapeGroup" fill="#1D1D1B" d="M193.6,108.4c-1.4-3.8-2.8-7.6-4.1-11.3s-2.6-7.5-3.9-11.3h-39.9
		l-8,22.6h-12.8c3.4-9.4,6.6-18,9.5-26c3-8,5.9-15.5,8.7-22.7c2.8-7.2,5.7-14,8.5-20.5s5.7-13,8.8-19.4h11.3
		c3.1,6.4,6,12.8,8.8,19.4s5.6,13.4,8.5,20.5c2.8,7.2,5.7,14.7,8.7,22.7c3,8,6.1,16.6,9.5,26H193.6L193.6,108.4z M182,75.5
		c-2.7-7.4-5.4-14.6-8.1-21.5c-2.7-6.9-5.5-13.6-8.3-20c-3,6.4-5.8,13.1-8.5,20c-2.7,6.9-5.3,14.1-8,21.5H182L182,75.5z"/>
	<path id="Fill-6" sketch:type="MSShapeGroup" fill="#1D1D1B" d="M238.1,109.7c-7.3-0.2-12.5-1.7-15.5-4.7c-3.1-3-4.6-7.6-4.6-13.9
		V11.3l11.8-2v79.9c0,2,0.2,3.6,0.5,4.9c0.3,1.3,0.9,2.3,1.7,3.1c0.8,0.8,1.8,1.3,3.1,1.7c1.3,0.4,2.8,0.7,4.7,1L238.1,109.7"/>
	<path id="Fill-7" sketch:type="MSShapeGroup" fill="#1D1D1B" d="M294.5,101.7c-1,0.7-3,1.6-5.9,2.6c-2.9,1.1-6.3,1.6-10.2,1.6
		c-4,0-7.7-0.6-11.3-1.9c-3.5-1.3-6.6-3.3-9.2-5.9c-2.6-2.7-4.7-6-6.2-10c-1.5-4-2.3-8.8-2.3-14.3c0-4.9,0.7-9.3,2.2-13.4
		c1.4-4,3.5-7.5,6.3-10.5c2.8-2.9,6.1-5.2,10.1-6.9c4-1.7,8.5-2.5,13.5-2.5c5.5,0,10.3,0.4,14.4,1.2c4.1,0.8,7.6,1.6,10.4,2.2v59.3
		c0,10.2-2.6,17.6-7.9,22.2c-5.3,4.6-13.2,6.9-23.9,6.9c-4.2,0-8.1-0.3-11.8-1c-3.7-0.7-6.9-1.5-9.6-2.4l2.2-10.4
		c2.4,0.9,5.3,1.8,8.7,2.5c3.4,0.7,7,1.1,10.7,1.1c7,0,12.1-1.4,15.2-4.2c3.1-2.8,4.6-7.3,4.6-13.4V101.7L294.5,101.7z M289.6,51.5
		c-2-0.3-4.7-0.4-8.1-0.4c-6.4,0-11.3,2.1-14.7,6.3c-3.4,4.2-5.2,9.7-5.2,16.6c0,3.8,0.5,7.1,1.5,9.8c1,2.7,2.3,5,3.9,6.8
		c1.7,1.8,3.6,3.1,5.7,4c2.2,0.9,4.4,1.3,6.7,1.3c3.1,0,6-0.4,8.6-1.3c2.6-0.9,4.7-1.9,6.2-3.1V52.4
		C293.2,52.1,291.6,51.8,289.6,51.5z"/>
	<path id="Fill-8" sketch:type="MSShapeGroup" fill="#1D1D1B" d="M421,109.7c-7.3-0.2-12.5-1.7-15.5-4.7c-3.1-3-4.6-7.6-4.6-13.9
		V11.3l11.8-2v79.9c0,2,0.2,3.6,0.5,4.9c0.3,1.3,0.9,2.3,1.7,3.1c0.8,0.8,1.8,1.3,3.1,1.7c1.3,0.4,2.8,0.7,4.7,1L421,109.7"/>
	<path id="Fill-9" sketch:type="MSShapeGroup" fill="#1D1D1B" d="M441.8,29.9c-2.1,0-3.9-0.7-5.4-2.1c-1.5-1.4-2.2-3.3-2.2-5.7
		c0-2.4,0.7-4.3,2.2-5.7c1.5-1.4,3.3-2.1,5.4-2.1c2.1,0,3.9,0.7,5.4,2.1c1.5,1.4,2.2,3.3,2.2,5.7c0,2.4-0.7,4.3-2.2,5.7
		C445.7,29.2,443.9,29.9,441.8,29.9L441.8,29.9z M435.9,41.9h11.8v66.5h-11.8V41.9z"/>
	<path id="Fill-10" sketch:type="MSShapeGroup" fill="#1D1D1B" d="M489.5,40.3c4.7,0,8.8,0.6,12,1.9c3.3,1.2,5.9,3,7.9,5.2
		c2,2.3,3.4,4.9,4.3,8.1c0.8,3.1,1.3,6.5,1.3,10.3v41.5c-1,0.2-2.4,0.4-4.3,0.7c-1.8,0.3-3.9,0.6-6.2,0.8s-4.8,0.5-7.4,0.7
		c-2.7,0.2-5.3,0.3-8,0.3c-3.7,0-7.2-0.4-10.3-1.2c-3.1-0.8-5.9-2-8.1-3.6c-2.3-1.7-4.1-3.9-5.3-6.6c-1.3-2.7-1.9-6-1.9-9.8
		c0-3.7,0.7-6.8,2.2-9.5c1.5-2.6,3.5-4.8,6-6.4c2.5-1.6,5.5-2.8,8.9-3.6c3.4-0.8,7-1.2,10.7-1.2c1.2,0,2.4,0.1,3.7,0.2
		c1.3,0.1,2.5,0.3,3.6,0.5c1.1,0.2,2.1,0.4,3,0.6c0.8,0.2,1.4,0.3,1.8,0.4v-3.3c0-2-0.2-3.9-0.6-5.8c-0.4-1.9-1.2-3.6-2.3-5.1
		c-1.1-1.5-2.6-2.7-4.5-3.6c-1.9-0.9-4.4-1.3-7.4-1.3c-3.9,0-7.3,0.3-10.2,0.8c-2.9,0.6-5.1,1.1-6.6,1.7l-1.4-9.8
		c1.5-0.7,4.1-1.3,7.6-2C481.5,40.6,485.3,40.3,489.5,40.3L489.5,40.3z M490.5,99.8c2.8,0,5.3-0.1,7.4-0.2c2.2-0.1,4-0.4,5.4-0.7
		V79.1c-0.8-0.4-2.2-0.8-4.1-1.1c-1.9-0.3-4.2-0.4-6.9-0.4c-1.8,0-3.7,0.1-5.7,0.4c-2,0.3-3.8,0.8-5.5,1.6c-1.7,0.8-3,1.9-4.1,3.3
		c-1.1,1.4-1.7,3.3-1.7,5.6c0,4.3,1.4,7.2,4.1,8.9C482.1,99,485.8,99.8,490.5,99.8L490.5,99.8z"/>
</g>
</svg>
