<?xml version="1.0" encoding="UTF-8"?>
<!-- Generator: Adobe Illustrator 16.0.4, SVG Export Plug-In . SVG Version: 6.00 Build 0)  -->
<!DOCTYPE svg PUBLIC "-//W3C//DTD SVG 1.1//EN" "http://www.w3.org/Graphics/SVG/1.1/DTD/svg11.dtd">
<svg version="1.1" id="Layer_1" xmlns="http://www.w3.org/2000/svg" xmlns:xlink="http://www.w3.org/1999/xlink" x="0px" y="0px" width="200px" height="47.451px" viewBox="0 0 200 47.451" enable-background="new 0 0 200 47.451" xml:space="preserve">
<g>
	<path fill="#000" d="M54.852,0.063c-1.703-0.732-15.854,4.841-23.299,18.011c-5.94,10.509-6.496,26.635-4.258,27.63   c0.934,0.414,21.259-34.915,21.259-34.915S29.623,46.833,30.35,47.235c3.094,1.715,14.932-7.034,20.841-17.489   C58.636,16.576,56.461,0.756,54.852,0.063z"/>
	<path fill="#000" d="M1.602,10.127C0.067,11.095-1.045,23.281,5.125,33.54c4.925,8.188,14.833,15.057,17.014,13.468   c0.81-0.587-14.861-27.425-14.861-27.425S23.542,46.131,24.37,45.516c1.347-1.003,0.953-13.505-3.945-21.649   C14.253,13.607,3.122,9.168,1.602,10.127z"/>
</g>
<g>
	<path fill="#000" d="M84.308,16.593c0.2,2.231-1.366,3.831-2.365,4.13c-1.232-0.666-2.765-1.166-4.197-1.166   c-3.397,0-5.296,3.031-5.296,7.396c0,4.363,1.899,7.362,5.296,7.362c1.432,0,2.932-0.533,4.197-1.2   c1.434,0.334,2.599,2.232,2.365,4.131c-1.398,0.733-3.364,1.566-6.762,1.566c-7.661,0-11.226-4.597-11.226-11.859   c0-7.262,3.564-11.925,11.226-11.925C81.145,15.027,83.109,15.993,84.308,16.593z"/>
	<path fill="#000" d="M93.736,38.812c-5.063,0-8.594-2.799-8.594-8.895s3.531-8.895,8.594-8.895c5.063,0,8.628,2.799,8.628,8.895   S98.799,38.812,93.736,38.812z M93.736,25.32c-1.865,0-2.765,1.666-2.765,4.597c0,2.932,0.899,4.597,2.765,4.597   c1.899,0,2.766-1.665,2.766-4.597C96.501,26.986,95.635,25.32,93.736,25.32z"/>
	<path fill="#000" d="M111.591,21.022c1.633,0,2.499,0.399,3.298,0.833v-7.662c0,0,0.866-0.599,2.932-0.599   s2.898,0.599,2.898,0.599v20.42c0,0.534,0.333,0.768,0.999,0.768c0,0,0.5,0.632,0.5,1.565c0,0-0.898,1.865-3.398,1.865   c-1.466,0-2.397-0.634-2.964-1.532c-0.101,0.1-1.799,1.532-4.798,1.532c-4.863-0.067-7.095-3.265-7.095-8.729   C103.963,24.12,106.594,21.022,111.591,21.022z M112.858,34.514c1.299,0,1.997-0.565,2.03-0.6v-7.928   c-0.266-0.2-0.966-0.666-2.131-0.666c-1.966,0-2.965,1.099-2.965,4.631C109.793,33.448,110.792,34.514,112.858,34.514z"/>
	<path fill="#000" d="M136.908,33.082c1.2,0.633,2.032,2.598,1.233,3.964c0,0-2.099,1.766-6.196,1.766   c-5.229,0-8.628-2.965-8.628-8.795c0-6.296,3.897-8.994,8.661-8.994c4.63,0,7.295,2.632,7.295,8.162v2.364h-10.127   c0.101,1.633,1.167,2.965,3.099,2.965C134.677,34.514,136.908,33.082,136.908,33.082z M133.444,28.818   c0-2.365-0.499-3.498-1.998-3.498c-1.534,0-2.3,0.966-2.3,3.498H133.444z"/>
	<path fill="#000" d="M148.269,17.158v4.098h2.797c0,0,0.566,0.566,0.566,1.899c0,1.365-0.566,1.965-0.566,1.965h-2.797v7.561   c0,1.367,0.3,1.833,1.032,1.833c0.699,0,1.2-0.833,1.2-0.833c1.265,0.333,1.964,2.199,1.497,3.799   c-0.299,0.299-1.266,1.332-4.097,1.332c-3.831,0-5.463-1.666-5.463-5.83V25.12h-1.101l-1.465-0.933c0-1.799,0.4-2.932,0.4-2.932   h2.197v-4.098c0,0,0.834-0.6,2.933-0.6C147.436,16.559,148.269,17.158,148.269,17.158z"/>
	<path fill="#000" d="M159.561,21.855v1.033c0-0.034,1.166-1.866,3.398-1.866c1.666,0,2.498,1,2.498,1.032   c0.498,1.267,0.332,3.198-1.099,3.997c0,0-0.9-0.731-2.133-0.731c-1.6,0-2.499,1.099-2.499,2.497v10.161c0,0-0.833,0.6-2.897,0.6   c-2.032,0-2.932-0.566-2.932-0.6V21.855c0,0,0.801-0.6,2.832-0.6C158.596,21.256,159.428,21.788,159.561,21.855z"/>
	<path fill="#000" d="M179.747,33.082c1.2,0.633,2.032,2.598,1.233,3.964c0,0-2.099,1.766-6.196,1.766   c-5.229,0-8.628-2.965-8.628-8.795c0-6.296,3.897-8.994,8.661-8.994c4.63,0,7.295,2.632,7.295,8.162v2.364h-10.127   c0.101,1.633,1.167,2.965,3.099,2.965C177.516,34.514,179.747,33.082,179.747,33.082z M176.283,28.818   c0-2.365-0.499-3.498-1.998-3.498c-1.533,0-2.3,0.966-2.3,3.498H176.283z"/>
	<path fill="#000" d="M197.236,33.082c1.199,0.633,2.032,2.598,1.232,3.964c0,0-2.099,1.766-6.196,1.766   c-5.229,0-8.627-2.965-8.627-8.795c0-6.296,3.896-8.994,8.661-8.994c4.631,0,7.294,2.632,7.294,8.162v2.364h-10.126   c0.101,1.633,1.167,2.965,3.099,2.965C195.005,34.514,197.236,33.082,197.236,33.082z M193.771,28.818   c0-2.365-0.498-3.498-1.998-3.498c-1.533,0-2.299,0.966-2.299,3.498H193.771z"/>
</g>
</svg>