<?xml version="1.0" encoding="utf-8"?>
<!-- Generator: Adobe Illustrator 18.1.1, SVG Export Plug-In . SVG Version: 6.00 Build 0)  -->
<svg version="1.1" id="Ebene_1" xmlns="http://www.w3.org/2000/svg" xmlns:xlink="http://www.w3.org/1999/xlink" x="0px" y="0px"
	 viewBox="6 45.7 153 50" enable-background="new 6 45.7 153 50" xml:space="preserve">
<path d="M155.8,47.7h-47.6c-1.8,0-3.2,1.5-3.2,3.2v39.5c0,1.8,1.5,3.2,3.2,3.2h47.6c1.8,0,3.2-1.5,3.2-3.2V51
	C159,49.2,157.5,47.7,155.8,47.7z M117.6,83.9c0.1,1.8-1.4,3.2-3.2,3.2c-1.8,0-3.2-1.5-3.2-3.2v-26c0-1.8,1.5-3.2,3.2-3.2
	s3.2,1.5,3.2,3.2V83.9z M152.4,81.4c1.1,1.3,1,3.4-0.3,4.6c-0.6,0.5-1.4,0.8-2.1,0.8c-0.9,0-1.8-0.3-2.5-1.1l-8.8-10.2l-8.9,10.2
	c-0.6,0.8-1.5,1.1-2.4,1.1c-0.8,0-1.5-0.2-2.1-0.8c-1.3-1.2-1.5-3.2-0.3-4.6l9.4-10.8L125,59.7c-1.2-1.3-1-3.4,0.3-4.6
	c1.3-1.2,3.4-1.1,4.5,0.3l8.9,10.2l8.8-10.2c1.2-1.4,3.2-1.5,4.5-0.3c1.4,1.2,1.5,3.2,0.3,4.6L143,70.5L152.4,81.4z"/>
<path d="M10,78.7v-16H6v-5h9v21h4v5H6v-5H10z M15,48.7c0,1.7-1.4,3-3,3s-3-1.3-3-3s1.4-3,3-3S15,47.1,15,48.7z"/>
<path d="M26,78.7v-16h-4v-5h9.4v3c3-2.5,6.1-3.5,9.1-3.5s4.9,1.3,6,4c3.3-2.7,6.4-4,9.2-4c1.7,0,3,0.3,4,1.1s1.8,1.7,2.2,2.8
	c0.3,1.1,0.5,2.8,0.5,5v12.7h4.5v5h-9.5V67c0-1.5,0-2.5-0.2-3.1s-0.5-1.1-1-1.5c-0.5-0.4-1.2-0.6-2-0.6c-2.2,0-4.5,1.1-7.3,3.4v13.7
	h4v5h-9V66.6c0-1.7-0.2-2.9-0.7-3.7c-0.5-0.8-1.3-1.2-2.5-1.2c-1.9,0-4.9,0.8-7.9,3v14h5.1v5H22v-5H26z"/>
<path d="M99,57.7v5h-4.3l-0.1,18.7c0,2.6-0.2,4.6-0.4,5.8s-0.9,2.5-1.9,3.8c-1,1.3-2.5,2.4-4.6,3.3c-2,0.9-4.3,1.3-6.8,1.3
	c-3.8,0-7.1-1.2-10.1-3.4l3.2-3.7c2.2,1.8,4.6,2.6,7.2,2.6c1.4,0,2.8-0.3,4-0.8c1.2-0.5,2.2-1.2,2.8-2c0.6-0.8,1-1.6,1.2-2.3
	c0.2-0.7,0.2-1.9,0.2-3.7V80c-0.8,1-2.1,2-3.7,2.9c-1.7,0.9-3.6,1.3-5.6,1.3c-3.7,0-6.7-1.3-8.9-3.8c-2.3-2.5-3.5-5.8-3.5-9.5
	c0-4.1,1.2-7.4,3.8-10c2.6-2.5,5.4-3.8,8.8-3.8c3.3,0,6.8,1.8,9.4,4.5v-4L99,57.7L99,57.7z M73.3,70.8c0,2.6,0.8,4.8,2.2,6.4
	c1.5,1.7,3.4,2.5,5.8,2.5c2.3,0,4.2-0.8,5.9-2.5s2.5-3.8,2.5-6.4s-0.8-4.8-2.5-6.4c-1.7-1.6-3.6-2.4-5.8-2.4s-4.1,0.8-5.7,2.4
	C74.2,65.9,73.3,68.1,73.3,70.8z"/>
</svg>
